<svg width="30" height="30" viewBox="0 0 30 30" fill="none" xmlns="http://www.w3.org/2000/svg">
<ellipse cx="15" cy="15" rx="15" ry="15" fill="#FFD080"/>
<ellipse cx="15" cy="15" rx="15" ry="15" fill="url(#paint0_radial_7623_4809)"/>
<mask id="mask0_7623_4809" style="mask-type:alpha" maskUnits="userSpaceOnUse" x="0" y="0" width="30" height="30">
<ellipse cx="15" cy="15" rx="15" ry="15" fill="#C4C4C4"/>
</mask>
<g mask="url(#mask0_7623_4809)">
<path d="M22.6926 23.3921L18.5758 22.1813H11.4248L7.30795 23.3921C6.31052 23.6855 5.62561 24.6009 5.62561 25.6406V29.0626C5.62561 29.7097 6.15027 30.2344 6.79744 30.2344H23.2032C23.8503 30.2344 24.375 29.7097 24.375 29.0626V25.6406C24.375 24.6009 23.69 23.6855 22.6926 23.3921Z" fill="url(#paint1_linear_7623_4809)"/>
<path d="M16.9533 30.2345H13.0472L12.266 22.4222H17.7345L16.9533 30.2345Z" fill="url(#paint2_linear_7623_4809)"/>
<path d="M12.266 22.4222L12.3829 23.5915C13.0266 24.3107 13.9592 24.7659 15.0003 24.7659C16.0414 24.7659 16.974 24.3107 17.6177 23.5915L17.7346 22.4222H12.266Z" fill="url(#paint3_linear_7623_4809)"/>
<path d="M15.0002 23.9842C13.4901 23.9842 12.2659 22.76 12.2659 21.2499V18.5156H17.7345V21.2499C17.7345 22.76 16.5104 23.9842 15.0002 23.9842Z" fill="url(#paint4_linear_7623_4809)"/>
<path d="M12.266 20.1683C13.0867 20.6066 14.0172 20.8593 15.0003 20.8593C15.9833 20.8593 16.9139 20.6066 17.7345 20.1683V18.5156H12.266V20.1683Z" fill="url(#paint5_linear_7623_4809)"/>
<path d="M20.2735 13.4381H20.0782V9.53198H9.92232V13.4381H9.72701C9.18991 13.4381 8.75049 13.8775 8.75049 14.4146C8.75049 14.9517 9.18991 15.3912 9.72701 15.3912H9.94204C10.1421 18.0125 12.3276 20.0785 15.0003 20.0785C17.6729 20.0785 19.8584 18.0125 20.0585 15.3912H20.2735C20.8106 15.3912 21.2501 14.9517 21.2501 14.4146C21.2501 13.8775 20.8106 13.4381 20.2735 13.4381Z" fill="url(#paint6_linear_7623_4809)"/>
<path d="M12.6566 14.644C12.4407 14.644 12.266 14.4691 12.266 14.2534V13.8628C12.266 13.6471 12.4407 13.4722 12.6566 13.4722C12.8725 13.4722 13.0472 13.6471 13.0472 13.8628V14.2534C13.0472 14.4691 12.8725 14.644 12.6566 14.644Z" fill="url(#paint7_radial_7623_4809)"/>
<path d="M17.3439 14.6439C17.128 14.6439 16.9533 14.469 16.9533 14.2533V13.8627C16.9533 13.647 17.128 13.472 17.3439 13.472C17.5598 13.472 17.7345 13.647 17.7345 13.8627V14.2533C17.7345 14.469 17.5598 14.6439 17.3439 14.6439Z" fill="url(#paint8_radial_7623_4809)"/>
<path d="M13.0473 13.0468H12.266C12.0501 13.0468 11.8754 12.8719 11.8754 12.6562C11.8754 12.4405 12.0502 12.2656 12.266 12.2656H13.0473C13.2632 12.2656 13.4379 12.4405 13.4379 12.6562C13.4379 12.8719 13.2631 13.0468 13.0473 13.0468Z" fill="url(#paint9_linear_7623_4809)"/>
<path d="M17.7345 13.047H16.9533C16.7374 13.047 16.5627 12.872 16.5627 12.6564C16.5627 12.4407 16.7374 12.2657 16.9533 12.2657H17.7345C17.9504 12.2657 18.1251 12.4407 18.1251 12.6564C18.1251 12.872 17.9504 13.047 17.7345 13.047Z" fill="url(#paint10_linear_7623_4809)"/>
<path d="M9.92231 9.53198V13.4381H9.7613C9.31658 13.4381 8.90119 13.7199 8.78596 14.1495C8.61175 14.7991 9.10359 15.3912 9.72701 15.3912H9.94204C10.1421 18.0126 12.3276 20.0786 15.0003 20.0786C15.2675 20.0786 15.528 20.0526 15.784 20.0128C13.3501 19.6371 11.4848 17.5396 11.4848 15.0006V12.6269C11.4848 11.7098 12.2593 10.9633 13.1732 11.0387C13.429 11.0597 13.6976 11.071 13.9799 11.071C15.1125 11.071 16.3772 10.8902 17.7389 10.5337C18.3338 10.378 18.8456 10.0153 19.1952 9.53198H9.92231Z" fill="url(#paint11_linear_7623_4809)"/>
<path d="M11.8266 7.96878L11.8754 9.53121C11.8754 9.53121 10.7036 10.703 10.7036 12.2655V12.7477C10.7036 13.1416 10.4102 13.474 10.0192 13.5229L9.14111 13.6327V10.3125C9.14116 9.0181 10.3618 7.90369 11.8266 7.96878Z" fill="url(#paint12_linear_7623_4809)"/>
<path d="M19.6801 24.3674L18.9064 23.5937L19.7344 22.4897C19.9135 22.251 19.8326 21.9084 19.5657 21.7749L17.7346 20.8594L15.0003 30.2341H17.344L19.8264 25.2691C19.9768 24.9683 19.9179 24.6051 19.6801 24.3674Z" fill="url(#paint13_linear_7623_4809)"/>
<path d="M18.1739 6.7969L18.1251 9.53117C18.1251 9.53117 19.2969 10.703 19.2969 12.2654V12.7476C19.2969 13.1416 19.5903 13.4739 19.9813 13.5228L20.8594 13.6326V9.14061C20.8594 7.84622 19.6388 6.73182 18.1739 6.7969Z" fill="url(#paint14_linear_7623_4809)"/>
<path d="M15.0002 17.3438C14.4139 17.3438 13.8734 17.1558 13.5541 16.8407C13.4004 16.6889 13.3989 16.4417 13.5503 16.2884C13.7025 16.1346 13.9497 16.1331 14.1026 16.2845C14.2327 16.4127 14.5455 16.5626 15.0002 16.5626C15.4549 16.5626 15.7677 16.4127 15.8977 16.2845C16.0507 16.1331 16.2979 16.1346 16.4501 16.2884C16.6015 16.4417 16.6 16.6889 16.4462 16.8407C16.1271 17.1558 15.5865 17.3438 15.0002 17.3438Z" fill="#DEA672"/>
<path d="M10.3205 24.3674L11.0942 23.5937L10.2662 22.4897C10.0871 22.251 10.168 21.9084 10.4349 21.7749L12.266 20.8594L15.0002 30.2341H12.6566L10.1741 25.2691C10.0237 24.9683 10.0827 24.6051 10.3205 24.3674Z" fill="url(#paint15_linear_7623_4809)"/>
<path d="M15.7571 6.0166C12.4982 6.0166 11.8736 7.00731 9.36416 7.8066C9.19171 7.86152 9.11409 8.06127 9.21157 8.21372C9.7561 9.06551 11.7829 11.2857 17.541 9.77809C18.2153 9.60157 18.7338 9.05789 18.8705 8.3744C19.0289 7.58254 18.5476 6.79829 17.8241 6.43975C17.2494 6.155 16.4957 6.0166 15.7571 6.0166Z" fill="url(#paint16_linear_7623_4809)"/>
</g>
<defs>
<radialGradient id="paint0_radial_7623_4809" cx="0" cy="0" r="1" gradientUnits="userSpaceOnUse" gradientTransform="translate(4.9 3.4) rotate(53.9454) scale(30.9231)">
<stop offset="0.356879" stop-color="#FFD080"/>
<stop offset="1" stop-color="#FFBB80"/>
</radialGradient>
<linearGradient id="paint1_linear_7623_4809" x1="15.0003" y1="22.1813" x2="15.0003" y2="30.2344" gradientUnits="userSpaceOnUse">
<stop stop-color="#6B2BF2"/>
<stop offset="1" stop-color="#BB9BFF"/>
</linearGradient>
<linearGradient id="paint2_linear_7623_4809" x1="15" y1="23.7504" x2="15.0003" y2="30.2345" gradientUnits="userSpaceOnUse">
<stop stop-color="#8CD3FF"/>
<stop offset="1" stop-color="#CFECFF"/>
</linearGradient>
<linearGradient id="paint3_linear_7623_4809" x1="13.4375" y1="23.7504" x2="15.9375" y2="25.0004" gradientUnits="userSpaceOnUse">
<stop stop-color="#73B6E6"/>
<stop offset="1" stop-color="#92CCF5"/>
</linearGradient>
<linearGradient id="paint4_linear_7623_4809" x1="13.4962" y1="19.5687" x2="17.1964" y2="22.8265" gradientUnits="userSpaceOnUse">
<stop stop-color="#E6AC82"/>
<stop offset="1" stop-color="#F2CBAF"/>
</linearGradient>
<linearGradient id="paint5_linear_7623_4809" x1="12.5" y1="19.6875" x2="15.9725" y2="22.7271" gradientUnits="userSpaceOnUse">
<stop stop-color="#E6A470"/>
<stop offset="1" stop-color="#E6A370" stop-opacity="0"/>
</linearGradient>
<linearGradient id="paint6_linear_7623_4809" x1="11.5625" y1="11.5629" x2="18.75" y2="19.0629" gradientUnits="userSpaceOnUse">
<stop stop-color="#F3B68A"/>
<stop offset="1" stop-color="#FED5B8"/>
</linearGradient>
<radialGradient id="paint7_radial_7623_4809" cx="0" cy="0" r="1" gradientUnits="userSpaceOnUse" gradientTransform="translate(12.501 13.8226) rotate(71.565) scale(0.98811 0.658741)">
<stop stop-color="#040404"/>
<stop offset="1" stop-color="#767676"/>
</radialGradient>
<radialGradient id="paint8_radial_7623_4809" cx="0" cy="0" r="1" gradientUnits="userSpaceOnUse" gradientTransform="translate(17.1884 13.8225) rotate(71.565) scale(0.98811 0.65874)">
<stop stop-color="#040404"/>
<stop offset="1" stop-color="#767676"/>
</radialGradient>
<linearGradient id="paint9_linear_7623_4809" x1="12.1875" y1="12.1872" x2="12.6566" y2="13.0468" gradientUnits="userSpaceOnUse">
<stop stop-color="#70482B"/>
<stop offset="1" stop-color="#70482B" stop-opacity="0.49"/>
</linearGradient>
<linearGradient id="paint10_linear_7623_4809" x1="16.8748" y1="12.1873" x2="17.3439" y2="13.047" gradientUnits="userSpaceOnUse">
<stop stop-color="#70482B"/>
<stop offset="1" stop-color="#70482B" stop-opacity="0.49"/>
</linearGradient>
<linearGradient id="paint11_linear_7623_4809" x1="10.3125" y1="9.68793" x2="13.9728" y2="20.0786" gradientUnits="userSpaceOnUse">
<stop stop-color="#EBA873"/>
<stop offset="1" stop-color="#EBA773" stop-opacity="0"/>
</linearGradient>
<linearGradient id="paint12_linear_7623_4809" x1="9.37505" y1="13.4371" x2="12.9495" y2="11.8934" gradientUnits="userSpaceOnUse">
<stop stop-color="#99633C"/>
<stop offset="1" stop-color="#412A18"/>
</linearGradient>
<linearGradient id="paint13_linear_7623_4809" x1="17.4546" y1="20.8594" x2="17.4546" y2="30.2341" gradientUnits="userSpaceOnUse">
<stop stop-color="#864DFF"/>
<stop offset="1" stop-color="#D3BFFF"/>
</linearGradient>
<linearGradient id="paint14_linear_7623_4809" x1="20.9375" y1="13.7496" x2="23.0788" y2="9.54512" gradientUnits="userSpaceOnUse">
<stop stop-color="#99633C"/>
<stop offset="1" stop-color="#412A18"/>
</linearGradient>
<linearGradient id="paint15_linear_7623_4809" x1="12.5459" y1="20.8594" x2="12.5459" y2="30.2341" gradientUnits="userSpaceOnUse">
<stop stop-color="#864DFF"/>
<stop offset="1" stop-color="#D3BFFF"/>
</linearGradient>
<linearGradient id="paint16_linear_7623_4809" x1="9.68748" y1="8.43802" x2="18.4375" y2="6.87552" gradientUnits="userSpaceOnUse">
<stop stop-color="#8A5936"/>
<stop offset="1" stop-color="#412A18"/>
</linearGradient>
</defs>
</svg>
